<?xml version="1.0" encoding="UTF-8" standalone="no"?>
<!-- Created with Inkscape (http://www.inkscape.org/) -->
<svg xmlns:dc="http://purl.org/dc/elements/1.1/" xmlns:cc="http://creativecommons.org/ns#" xmlns:rdf="http://www.w3.org/1999/02/22-rdf-syntax-ns#" xmlns:svg="http://www.w3.org/2000/svg" xmlns="http://www.w3.org/2000/svg" xmlns:sodipodi="http://sodipodi.sourceforge.net/DTD/sodipodi-0.dtd" xmlns:inkscape="http://www.inkscape.org/namespaces/inkscape" width="469.505" height="355.52304" id="svg2836" version="1.1" inkscape:version="0.47 r22583" sodipodi:docname="/home/juerd/data/jue/revspace/data/jue/revspace/logo.svg">
  <defs id="defs2838">
    <inkscape:perspective sodipodi:type="inkscape:persp3d" inkscape:vp_x="0 : 526.18109 : 1" inkscape:vp_y="0 : 1000 : 0" inkscape:vp_z="744.09448 : 526.18109 : 1" inkscape:persp3d-origin="372.04724 : 350.78739 : 1" id="perspective2844"/>
    <inkscape:perspective id="perspective2829" inkscape:persp3d-origin="0.5 : 0.33333333 : 1" inkscape:vp_z="1 : 0.5 : 1" inkscape:vp_y="0 : 1000 : 0" inkscape:vp_x="0 : 0.5 : 1" sodipodi:type="inkscape:persp3d"/>
    <inkscape:perspective id="perspective2867" inkscape:persp3d-origin="0.5 : 0.33333333 : 1" inkscape:vp_z="1 : 0.5 : 1" inkscape:vp_y="0 : 1000 : 0" inkscape:vp_x="0 : 0.5 : 1" sodipodi:type="inkscape:persp3d"/>
  </defs>
  <sodipodi:namedview id="base" pagecolor="#ffffff" bordercolor="#666666" borderopacity="1.0" inkscape:pageopacity="0.0" inkscape:pageshadow="2" inkscape:zoom="0.35" inkscape:cx="-287.39035" inkscape:cy="292.04721" inkscape:document-units="px" inkscape:current-layer="layer1" showgrid="false" inkscape:window-width="1440" inkscape:window-height="847" inkscape:window-x="0" inkscape:window-y="26" inkscape:window-maximized="1"/>
  <metadata id="metadata2841">
    <rdf:RDF>
      <cc:Work rdf:about="">
        <dc:format>image/svg+xml</dc:format>
        <dc:type rdf:resource="http://purl.org/dc/dcmitype/StillImage"/>
        <dc:title/>
      </cc:Work>
    </rdf:RDF>
  </metadata>
  <g inkscape:label="Laag 1" inkscape:groupmode="layer" id="layer1" transform="translate(-96.676064,-468.88635)">
    <g id="g3664">
      <rect y="468.88635" x="96.676064" height="355.52304" width="469.505" id="rect5497" style="fill:#003e00;fill-opacity:1;stroke:none"/>
      <g transform="translate(-8.5714336,-8.5714535)" id="g3658">
        <g id="g2881">
          <g transform="translate(91.437639,-226.01392)" id="g3054">
            <path inkscape:connector-curvature="0" id="path4060" style="fill:#ffff48;fill-opacity:1;stroke:none;display:inline" d="m 156.2767,909.87466 c -8.74408,28.15266 -19.00278,49.02732 -30.68836,79.14553 l 4.4599,0.0353 c -0.11336,-0.008 33.23721,-77.55427 35.99776,-78.11904 -3.23362,0.20418 -4.74991,0.59864 -9.7693,-1.06189 z m -40.98861,-20.63588 c -7.35592,24.27899 -29.935637,74.92672 -43.891077,108.8074 l 4.74307,0.46014 c 7.96735,-19.32272 29.163017,-66.05665 46.793547,-102.71928 -3.11781,-1.9612 -5.04016,-3.6771 -7.64554,-6.54826 z m 73.05741,-44.10346 c 3.6171,1.0531 7.35404,3.32619 11.92846,4.4245 -3.30321,7.94568 -6.16761,14.38281 -17.34405,46.01484 -1.55555,0.51783 -6.57775,-0.26126 -8.60124,-5.06163 4.07987,-8.5079 6.61173,-15.22958 10.58341,-23.78613 -0.96791,-0.33234 -2.68035,-0.84951 -4.56608,-1.41584 l 7.9995,-20.17574 z M 151.46283,825.6675 c 12.5422,8.19757 20.03456,12.86239 28.98935,17.16708 -3.23149,7.1203 -5.80329,12.66084 -9.02598,19.82178 -4.97646,-1.52594 -10.6896,-4.95545 -10.6896,-4.95545 l -9.27377,-32.03341 z m -10.6188,-7.75173 4.24752,1.73441 -2.79629,5.59257 6.76064,22.47648 c 0.26974,4.06724 -2.39792,4.04484 -5.66336,3.15025 -7.13428,-4.62524 -7.13538,5.82536 -13.13193,15.85742 -3.83043,0.43199 -6.89801,-2.2884 -9.02599,-4.56609 l 19.60941,-44.24504 z m 52.20914,-45.16533 c 0.78697,0.0211 1.72813,0.23532 2.83168,0.67252 0.39231,0.15562 0.84192,0.38325 1.27426,0.60173 6.91754,3.49497 13.39961,15.85668 9.23837,26.72401 -4.1012,10.70864 -10.63227,24.94651 -18.15817,43.6433 -0.6367,-0.1389 -1.52203,-0.49554 -1.52203,-0.49554 l -8.8844,21.62697 2.05297,0.60174 c -1.71231,4.84949 -4.87142,10.69902 -5.3448,15.04331 -0.49166,5.20182 -3.4035,11.70619 -5.23862,15.07871 -2.67262,0.56319 -6.58288,-0.37718 -10.72499,-1.55743 6.63611,-14.10387 8.98555,-21.88203 12.91955,-30.90073 l 1.7698,0.60173 9.16757,-21.87475 c 0,0 -0.74745,-0.36238 -1.27425,-0.49554 17.40271,-38.41149 21.93793,-47.68437 18.58291,-55.324 -3.39038,-7.72055 -4.82975,-7.12727 -8.07029,-9.20297 -2.46832,-1.58137 -2.02976,-4.8346 1.38044,-4.74306 z m -7.61015,-18.37054 c -5.19877,0.1424 -10.13905,1.53332 -14.93712,3.85816 -2.38828,1.1577 -4.71961,2.52901 -7.04381,4.10594 -10.61652,7.2233 -14.69906,19.43176 -23.92772,42.93539 -15.84354,40.3507 -17.78189,45.8501 -20.4943,45.4839 -2.71232,-0.36605 -4.7647,3.16635 -10.6896,18.7245 5.22543,28.50863 69.34855,48.32621 82.36656,29.52029 5.15143,-10.30004 6.78064,-15.13212 4.4599,-16.77772 -2.3207,-1.64574 -0.39638,-7.22172 15.32649,-44.88217 13.93492,-33.35972 14.76553,-41.87451 12.81336,-53.62498 -1.83021,-11.01627 -11.14813,-21.37483 -22.86584,-26.37005 -0.78116,-0.33308 -1.5707,-0.60079 -2.37153,-0.8849 -4.38005,-1.55348 -8.59289,-2.19913 -12.63639,-2.08836 z"/>
            <path inkscape:connector-curvature="0" id="path4025" style="fill:#ffffff;fill-opacity:1;stroke:none;display:inline" d="m 321.61156,970.18944 -1.52203,3.85817 c -1.95409,5.0373 -2.71298,6.23585 -5.30941,8.42425 -3.77804,3.11454 -9.30807,5.22453 -13.73366,5.23862 -4.63143,0.0147 -7.05814,-2.7349 -5.59257,-6.51287 1.36786,-3.52612 4.48608,-6.08045 9.69851,-7.85792 3.6465,-1.18552 8.00796,-2.03327 16.45916,-3.15025 z m -52.45692,-15.00792 c 7.10152,-0.0226 8.97829,5.75151 5.16782,15.57426 -4.2013,10.83021 -10.8154,17.00222 -18.12277,17.02549 -7.30737,0.0232 -9.72727,-6.20259 -5.98193,-15.85742 4.03846,-10.41043 11.11491,-16.71743 18.93688,-16.74233 z m 139.31878,-1.34504 c 0.30342,-0.02 0.61153,9.8e-4 0.92029,0 6.27816,-0.0199 8.65818,4.39794 6.05273,11.11435 -0.94448,2.4347 -2.12213,3.10436 -5.4156,3.11485 l -18.01658,0.0708 c 1.00961,-2.60261 2.12943,-4.44201 4.07055,-6.79604 3.85821,-4.72892 7.83735,-7.20389 12.38861,-7.50395 z m -135.70839,-3.18565 c -6.38108,0.0203 -11.43377,2.20741 -16.99009,7.25619 l 2.30074,-5.94653 -18.15816,0.99108 -1.41584,3.6104 3.71658,-0.0353 c 3.80807,-0.0121 4.19672,0.56667 2.79629,4.17673 l -14.37079,37.02425 -1.30966,3.36265 c -1.30272,3.3582 -2.65144,3.9434 -9.23836,3.9643 l -0.42475,0 -1.16807,3.0441 26.7594,-0.1061 1.16807,-3.0087 -1.13268,0 c -6.68983,0.021 -7.56781,-0.5708 -6.26509,-3.929 l 1.27425,-3.36259 4.74307,-12.14084 c 1.50743,4.85859 4.65922,6.74523 10.93738,6.72525 11.93879,-0.038 24.26131,-9.01967 28.91855,-21.02524 4.49442,-11.58581 -0.81957,-20.63654 -12.14084,-20.60049 z m 47.00593,-0.14158 c -11.52711,0.0367 -21.79518,4.50325 -24.14009,10.54802 -1.23759,3.19029 0.36214,5.21468 3.96436,5.20321 3.19053,-0.0102 6.24374,-1.79966 7.22079,-4.31831 0.42338,-1.09142 0.36088,-2.26133 -0.21238,-3.43342 -0.38955,-0.58571 -0.38087,-0.84541 -0.28317,-1.09728 0.68393,-1.76306 5.46625,-3.2761 10.40643,-3.29183 3.19054,-0.0102 6.48734,0.79889 7.64555,2.05297 1.4344,1.33706 1.35938,3.37203 -0.10613,7.15 l -1.27426,3.25644 c -11.3929,1.54559 -14.93859,2.24696 -20.60049,3.85816 -9.89336,2.71474 -15.75241,6.67469 -17.8042,11.96386 -2.31235,5.96082 2.05733,9.79813 11.11435,9.76931 7.10152,-0.0227 14.40774,-2.39405 20.4943,-6.68985 -0.0143,4.27646 1.88797,5.96192 6.72525,5.94653 4.63143,-0.0147 10.41764,-2.48534 11.36212,-4.92005 0.22798,-0.58769 -0.12252,-0.99273 -0.63713,-0.99109 -0.41168,10e-4 -0.84546,0.0644 -1.66361,0.31857 -1.84213,0.50898 -2.29149,0.59911 -3.11485,0.60173 -2.88178,0.009 -3.29202,-1.5718 -1.66361,-5.76955 l 6.54826,-16.88391 c 2.05179,-5.28917 1.95529,-7.97626 -0.24777,-9.98168 -2.54961,-2.17203 -7.14674,-3.3128 -13.73366,-3.29183 z m 49.51905,-0.17698 c -13.37969,0.0426 -26.40204,9.08227 -31.25469,21.59158 -4.62469,11.92162 0.9007,20.11018 13.66286,20.06955 9.15994,-0.0291 15.76674,-3.47528 23.64455,-12.38861 l -3.5396,-1.27426 c -5.63837,6.05525 -10.0808,8.51341 -15.43267,8.53044 -8.23365,0.0262 -10.99587,-6.10547 -7.18539,-15.92821 3.94075,-10.15857 11.60391,-16.96586 19.22004,-16.9901 3.08762,-0.0102 5.33495,1.16984 4.81386,2.51312 -0.0978,0.25186 -0.41939,0.48605 -1.02648,0.99109 -2.26553,1.60039 -2.98595,2.46633 -3.53961,3.89356 -1.07475,2.77052 0.7515,4.68374 4.35371,4.67228 3.60222,-0.0114 7.19233,-2.37595 8.49505,-5.73416 2.18207,-5.62499 -3.05169,-9.97544 -12.21163,-9.94628 z m 41.69653,-0.10613 c -13.17385,0.0419 -26.65264,9.38767 -31.53787,21.98093 -4.55954,11.75372 1.71537,19.68903 15.60965,19.6448 9.77746,-0.0312 18.27761,-4.01009 25.59133,-11.99925 l -2.97326,-1.55743 c -6.7275,6.47797 -12.0412,9.00404 -18.93688,9.02599 -5.24895,0.0168 -8.31399,-1.83628 -9.55693,-5.52178 -0.87552,-2.51276 -0.58452,-5.43461 1.30965,-10.05248 l 33.37846,-0.10613 c 4.98815,-12.59359 -0.32784,-21.45457 -12.88415,-21.4146 z M 216.27297,929.37787 c -13.4826,0.0429 -25.27229,7.09745 -29.34331,17.59183 -3.54993,9.15111 0.26666,13.67098 14.15841,16.81312 l 8.99059,1.98217 c 6.99734,1.57091 7.63352,1.74305 9.27376,3.07946 2.33855,1.92114 2.93377,4.68985 1.66362,7.96411 -1.30272,3.3582 -3.92636,6.14764 -7.89332,8.42425 -4.34085,2.44551 -8.10842,3.38 -13.76905,3.39802 -7.61613,0.0242 -12.32435,-1.91483 -15.46807,-6.2651 -2.79196,-3.93213 -3.40627,-7.87577 -2.44233,-14.33539 l -4.4245,0.0353 -8.8844,23.92772 3.99975,-0.0353 6.86683,-5.69876 c 5.10443,4.59558 10.19515,6.2582 19.14925,6.2297 15.12934,-0.0481 27.63388,-7.29754 31.99801,-18.54752 2.01923,-5.20522 1.57285,-9.67124 -1.20346,-12.84876 -1.93209,-2.17399 -5.40805,-3.58573 -12.99035,-5.23861 l -10.12326,-2.22995 c -8.41087,-1.90181 -11.4728,-5.1436 -9.48614,-10.26485 2.27978,-5.87685 9.72847,-9.95383 18.47673,-9.98168 7.20445,-0.023 12.07495,2.48385 14.33539,7.25618 1.64941,3.43266 2.1636,6.97849 1.8406,11.25594 l 4.4245,-0.0353 7.22079,-21.80395 -3.82277,0 -6.05272,5.06163 c -3.37171,-3.76258 -9.18718,-5.75742 -16.49455,-5.73416 z m 85.41062,-48.42177 c 0.30342,-0.02 0.61153,9.9e-4 0.9203,0 6.27816,-0.0199 8.65817,4.39795 6.05272,11.11436 -0.94448,2.4347 -2.12213,3.10436 -5.41559,3.11485 l -18.01658,0.0708 c 1.00961,-2.60261 2.12942,-4.44201 4.07054,-6.79604 3.85821,-4.72892 7.83735,-7.20389 12.38861,-7.50396 z m 73.44677,-2.58391 -20.60049,0.0708 -1.16807,3.00866 1.45123,0 c 3.60222,-0.0114 5.17358,0.9715 4.42451,2.90247 -0.35825,0.92351 -1.29761,2.27865 -2.30074,3.53961 l -17.02549,19.50321 -3.11486,-22.19331 c -0.11335,-0.50275 -0.0185,-1.26607 0.17698,-1.7698 0.55367,-1.42724 2.08075,-1.93335 6.3005,-1.94679 l 1.45124,0 1.16806,-3.04405 -24.28167,0.0708 -1.16807,3.04406 0.81411,0 c 3.91098,-0.0125 5.04662,0.72511 5.38019,3.575 l 4.60149,33.69702 3.61039,0 26.05148,-29.52029 c 4.92836,-5.54989 8.7254,-7.91627 12.63639,-7.92871 l 0.42475,0 1.16807,-3.00867 z m -70.93365,-1.02648 c -13.17385,0.0419 -26.65263,9.38767 -31.53786,21.98093 -4.55955,11.75372 1.71536,19.68903 15.60965,19.6448 9.77746,-0.0311 18.2776,-4.01009 25.59133,-11.99925 l -2.97327,-1.55743 c -6.7275,6.47797 -12.0412,9.00404 -18.93688,9.02599 -5.24895,0.0166 -8.31399,-1.83628 -9.55693,-5.52178 -0.87552,-2.51276 -0.58451,-5.43461 1.30966,-10.05247 l 33.37846,-0.10614 c 4.98814,-12.59359 -0.32785,-21.45457 -12.88416,-21.41459 z m -58.61583,-16.1052 5.55718,0 c 10.18914,-0.0324 13.44093,3.47444 10.47722,11.11436 -1.66097,4.28171 -4.25027,7.53757 -7.61014,9.30915 -3.25695,1.77126 -8.33333,2.88676 -13.27351,2.90248 l -11.29134,0.0353 7.15,-18.47673 c 1.30272,-3.35821 1.50653,-3.60801 2.79629,-4.28292 1.01877,-0.50635 1.76871,-0.58764 6.1943,-0.60173 z m 7.39777,-3.96435 -35.6084,0.10613 -1.52203,3.96436 1.84059,0 c 8.33657,-0.0265 9.0842,0.36745 7.71633,3.89356 l -0.92029,2.44233 -15.53886,40.0683 -0.9203,2.33614 c -1.36786,3.52611 -2.45921,3.93782 -10.79579,3.96436 l -1.84059,0 -1.52203,3.96435 33.73242,-0.10613 1.55742,-3.96436 -1.87599,0.0353 c -8.33657,0.0265 -9.08419,-0.40284 -7.71633,-3.92896 l 0.9203,-2.37153 7.39777,-19.11386 5.98193,-0.0353 c 4.01391,-0.0128 7.73731,0.97374 9.41534,2.47773 2.23564,1.92146 2.59713,4.93847 1.16807,10.47722 l -1.13267,4.28292 c -2.44516,9.483 -0.13124,13.33479 7.9995,13.30891 8.43949,-0.0268 14.22439,-4.64916 18.44133,-14.72475 l -4.31831,0 c -2.65889,5.79421 -4.86669,8.34462 -7.64555,8.35346 -2.36717,0.008 -2.83368,-1.43345 -2.33614,-7.22079 l 0.38936,-5.27401 c 0.73201,-7.71666 -1.89732,-11.23061 -9.27376,-12.88415 15.47194,-1.72628 24.46111,-6.63464 27.75049,-15.11411 3.71277,-9.57088 -4.05314,-14.99216 -21.34381,-14.93712 z"/>
          </g>
        </g>
      </g>
    </g>
  </g>
</svg>